<svg xmlns="http://www.w3.org/2000/svg" xml:space="preserve" viewBox="0 0 1000 1000"><switch><g><circle cx="500" cy="500" r="398" fill="#382B73"/><circle cx="500" cy="500" r="344.3" fill="#473080"/><g fill="#382B73"><path d="M611.9 564c18-23.6 28.7-53.2 28.7-85.2 0-77.7-63-140.6-140.6-140.6h-.2c-1.3 0-2.5 0-3.8.1-75.9 2.1-136.8 64.9-136.7 140.8.1 31.5 10.5 60.6 28 84 23.6 31.5 36.8 69.7 36.8 109.1h-.1v18c0 .9.2 1.7.6 2.4.1.2.2.4.3.5.9 1.3 2.4 2.1 4 2.1h.7v13h-.5c-2.8 0-5.1 2.3-5.1 5.1v12.8c0 .7.1 1.4.4 2 .4.9 1 1.7 1.9 2.3.8.6 1.8.9 2.9.9h.5v13h-.5c-2.8 0-5.1 2.3-5.1 5.1v12.8c0 2.5 1.8 4.5 4.1 5 .3.1.7.1 1 .1h.5c0 7.2 5.8 13 13 13h10.8v3.1c0 8.6 7 15.6 15.6 15.6h61.8c8.6 0 15.6-7 15.6-15.6v-3.1h10.8c7.2 0 13-5.8 13-13h.5c.4 0 .7 0 1-.1 2.3-.5 4.1-2.5 4.1-5v-12.8c0-2.8-2.3-5.1-5.1-5.1h-.5v-13h.5c1.1 0 2-.3 2.9-.9.8-.6 1.5-1.3 1.9-2.3.3-.6.4-1.3.4-2v-12.8c0-2.8-2.3-5.1-5.1-5.1h-.5v-13h.7c1.4 0 2.6-.6 3.5-1.5.3-.3.6-.7.8-1.1.4-.7.6-1.5.6-2.4v-18h-.1c0-39 12.4-77.2 36-108.2zM332.9 481.8c.1-.5.1-1 .1-1.6 0-.5 0-1-.1-1.4 0-.2-.1-.5-.1-.7 0-.2-.1-.4-.1-.6-.1-.3-.1-.6-.2-.9 0-.1-.1-.2-.1-.3-.1-.4-.2-.7-.3-1-2.1-6.1-7.8-10.4-14.6-10.4h-41.1c-6.8 0-12.5 4.4-14.6 10.4-.1.3-.2.7-.3 1 0 .1-.1.2-.1.3-.1.3-.1.6-.2.9 0 .2-.1.4-.1.6 0 .2-.1.5-.1.7 0 .5-.1.9-.1 1.4 0 .5 0 1.1.1 1.6.7 7.3 6.5 13 13.8 13.8.5.1 1 .1 1.6.1h41.1c.5 0 1.1 0 1.6-.1 7.3-.8 13.1-6.6 13.8-13.8zM738.9 478.8c0-.2-.1-.5-.1-.7 0-.2-.1-.4-.1-.6-.1-.3-.1-.6-.2-.9 0-.1-.1-.2-.1-.3-.1-.4-.2-.7-.3-1-2.1-6.1-7.8-10.4-14.6-10.4h-41.1c-6.8 0-12.5 4.4-14.6 10.4-.1.3-.2.7-.3 1 0 .1-.1.2-.1.3-.1.3-.1.6-.2.9 0 .2-.1.4-.1.6 0 .2-.1.5-.1.7 0 .5-.1.9-.1 1.4 0 .5 0 1.1.1 1.6.7 7.3 6.5 13 13.8 13.8.5.1 1 .1 1.6.1h41.1c.5 0 1.1 0 1.6-.1 7.3-.7 13-6.5 13.8-13.8.1-.5.1-1 .1-1.6 0-.5 0-1-.1-1.4zM498.4 313.1c.5.1 1 .1 1.6.1s1.1 0 1.6-.1c7.3-.7 13-6.5 13.8-13.8.1-.5.1-1 .1-1.6v-41.1c0-8.5-6.9-15.4-15.4-15.4s-15.4 6.9-15.4 15.4v41.1c0 .5 0 1.1.1 1.6.6 7.3 6.4 13.1 13.6 13.8zM326.5 321.4c0 .9 0 1.9.1 2.8 0 .2 0 .3.1.5 0 .2.1.5.1.7 0 .2.1.4.2.6l.3.9c.1.3.2.5.3.8.1.2.1.3.2.5.1.3.2.5.4.8.1.1.1.3.2.4.2.4.4.8.7 1.1.1.1.1.2.2.3l.6.9.3.3c.3.4.6.7.9 1l29.1 29.1c3 3 7 4.5 10.9 4.5h.1c3.9 0 7.9-1.5 10.9-4.5.3-.3.6-.7.9-1l.3-.3.6-.9c.1-.1.1-.2.2-.3.2-.4.5-.7.7-1.1.1-.1.1-.3.2-.4.1-.3.3-.5.4-.8.1-.2.1-.3.2-.5.1-.3.2-.5.3-.8l.3-.9c.1-.2.1-.4.2-.7.1-.2.1-.5.1-.7 0-.2 0-.3.1-.5.1-.9.2-1.9.1-2.8v-.2c-.1-1.4-.3-2.8-.8-4.1-.7-2.2-2-4.2-3.7-5.9l-29.1-29.1c-6-6-15.8-6-21.8 0-1.7 1.7-2.9 3.8-3.7 5.9-.5 1.3-.7 2.7-.8 4.1-.3.1-.3.2-.3.3z"/><path d="M670.8 647c.1-.1.1-.2.2-.3.2-.4.5-.7.7-1.1.1-.1.1-.3.2-.4.1-.3.3-.5.4-.8.1-.2.1-.3.2-.5.1-.3.2-.5.3-.8l.3-.9c.1-.2.1-.4.2-.6.1-.2.1-.5.1-.7 0-.1 0-.3.1-.5.1-.9.2-1.9.1-2.8v-.2c-.1-1.4-.3-2.8-.8-4.1-.7-2.2-2-4.2-3.7-5.9L640 598.3c-6-6-15.8-6-21.8 0-2.8 2.8-4.3 6.4-4.5 10v.2c0 .9 0 1.9.1 2.8 0 .2 0 .3.1.5 0 .2.1.5.1.7 0 .2.1.4.2.7l.3.9c.1.3.2.5.3.8.1.2.1.3.2.5.1.3.2.5.4.8.1.1.1.3.2.4.2.4.4.8.7 1.1.1.1.1.2.2.3l.6.9.3.3c.3.4.6.7.9 1l29.1 29.1c.4.4.8.7 1.2 1.1 5.7 4.6 13.8 4.6 19.5 0 .4-.3.8-.7 1.2-1.1.3-.3.6-.7.9-1l.3-.3c-.1-.5.1-.8.3-1zM383.7 617.9c.1-.1.1-.2.2-.3.2-.4.5-.7.7-1.1.1-.1.1-.3.2-.4.1-.3.3-.5.4-.8.1-.2.1-.3.2-.5.1-.3.2-.5.3-.8l.3-.9c.1-.2.1-.4.2-.7.1-.2.1-.5.1-.7 0-.2 0-.3.1-.5.1-.9.2-1.9.1-2.8v-.2c-.2-3.6-1.7-7.2-4.5-10-6-6-15.8-6-21.8 0L331 627.3c-1.7 1.7-2.9 3.8-3.7 5.9-.5 1.3-.7 2.7-.8 4.1v.2c0 .9 0 1.9.1 2.8 0 .2 0 .3.1.5 0 .2.1.5.1.7 0 .2.1.4.2.6l.3.9c.1.3.2.5.3.8.1.2.1.3.2.5.1.3.2.5.4.8.1.1.1.3.2.4.2.4.4.8.7 1.1.1.1.1.2.2.3l.6.9.3.3c.3.4.6.7.9 1 .4.4.8.7 1.2 1.1 5.7 4.6 13.8 4.6 19.5 0 .4-.3.8-.7 1.2-1.1l29.1-29.1c.3-.3.6-.7.9-1l.3-.3c0-.2.2-.5.4-.8zM613.6 350.4c0 .9 0 1.9.1 2.8 0 .2 0 .3.1.5 0 .2.1.5.1.7 0 .2.1.4.2.7l.3.9c.1.3.2.5.3.8.1.2.1.3.2.5.1.3.2.5.4.8.1.1.1.3.2.4.2.4.4.8.7 1.1.1.1.1.2.2.3l.6.9.3.3c.3.4.6.7.9 1 6 6 15.8 6 21.8 0l29-29.1c.3-.3.6-.7.9-1l.3-.3.6-.9c.1-.1.1-.2.2-.3.2-.4.5-.7.7-1.1.1-.1.1-.3.2-.4.1-.3.3-.5.4-.8.1-.2.1-.3.2-.5.1-.3.2-.5.3-.8l.3-.9c.1-.2.1-.4.2-.6.1-.2.1-.5.1-.7 0-.1 0-.3.1-.5.1-.9.2-1.9.1-2.8v-.2c-.1-1.4-.3-2.8-.8-4.1-.7-2.2-2-4.2-3.7-5.9-6-6-15.8-6-21.8 0l-29.1 29.1c-1.7 1.7-2.9 3.8-3.7 5.9-.5 1.3-.7 2.7-.8 4.1-.1 0-.1.1-.1.1z"/></g><path fill="#1CAEE4" d="M640.6 458.8c0-79-65.1-142.8-144.6-140.6-75.9 2.1-136.8 64.9-136.7 140.8 0 31.5 10.5 60.6 28 84 23.6 31.5 36.8 69.7 36.8 109.1h151.8c0-39 12.4-77.2 36-108.2 18-23.6 28.7-53.1 28.7-85.1z"/><path fill="#27C1E6" d="M594 458.8c0-79-43.5-142.8-96.7-140.6-50.7 2.1-91.4 64.9-91.3 140.8 0 31.5 7 60.6 18.7 84 15.8 31.5 24.6 69.7 24.6 109.1h101.4c0-39 8.3-77.2 24.1-108.2 12-23.6 19.2-53.1 19.2-85.1z"/><path fill="#009ADD" d="M571 675.2H429c-2.8 0-5-2.2-5-5v-18h152v18c0 2.7-2.2 5-5 5z"/><path fill="#136DA0" d="M571 665.2H429c-2.8 0-5-2.2-5-5v10c0 2.8 2.2 5 5 5h142c2.8 0 5-2.2 5-5v-10c0 2.7-2.2 5-5 5z"/><path fill="#009ADD" d="M570.9 711.2H429.1c-2.8 0-5.1-2.3-5.1-5.1v-12.8c0-2.8 2.3-5.1 5.1-5.1h141.8c2.8 0 5.1 2.3 5.1 5.1V706c0 2.9-2.3 5.2-5.1 5.2z"/><path fill="#136DA0" d="M570.9 701.2H429.1c-2.8 0-5.1-2.3-5.1-5.1v10c0 2.8 2.3 5.1 5.1 5.1h141.8c2.8 0 5.1-2.3 5.1-5.1v-10c0 2.8-2.3 5.1-5.1 5.1z"/><path fill="#1CAEE4" d="M429.7 675.2h140.7v13H429.7z"/><path fill="#009ADD" d="M570.9 747.2H429.1c-2.8 0-5.1-2.3-5.1-5.1v-12.8c0-2.8 2.3-5.1 5.1-5.1h141.8c2.8 0 5.1 2.3 5.1 5.1V742c0 2.9-2.3 5.2-5.1 5.2z"/><path fill="#136DA0" d="M570.9 737.2H429.1c-2.8 0-5.1-2.3-5.1-5.1v10c0 2.8 2.3 5.1 5.1 5.1h141.8c2.8 0 5.1-2.3 5.1-5.1v-10c0 2.8-2.3 5.1-5.1 5.1z"/><path fill="#1CAEE4" d="M429.7 711.2h140.7v13H429.7zM557.3 760.2H442.7c-7.2 0-13-5.8-13-13h140.7c-.1 7.1-5.9 13-13.1 13z"/><path fill="#136DA0" d="M530.9 778.8h-61.8c-8.6 0-15.6-7-15.6-15.6v-3.1h93v3.1c0 8.7-7 15.6-15.6 15.6z"/><path fill="#009ADD" d="M553 503c-3.5-6.7-8.8-12.5-15.8-17.2-6.5-4.5-16.3-8.9-30-13.6-14.4-4.9-21.1-9.3-24.1-12.1-3.5-3.2-5.2-7.9-5.2-14.2 0-6.6 1.9-11.6 6-15.4 4.2-3.9 10.1-5.8 18.3-5.8 7.7 0 13.6 2.3 17.8 7.2 4.5 5.2 6.7 12.2 6.7 21.5v8.7h30.4v-8.7c0-16.5-4.2-30-12.6-40-7-8.4-16.3-13.8-27.8-16.3v-23.3h-28.6V397c-11 2.2-20.2 6.9-27.3 14.1-8.9 9.1-13.5 20.9-13.5 35.1 0 13.5 4.1 24.8 12.3 33.6 7.7 8.3 20.3 15.1 38.3 20.8 14.9 5.2 21.5 9.7 24.4 12.6 3.6 3.5 5.3 7.8 5.3 13.6 0 6.4-2.1 11.1-6.7 15-5 4.2-11.4 6.2-19.7 6.2-9.6 0-16.7-2.4-21.7-7.2-4.9-4.8-7.3-11.5-7.3-20.5v-8.7h-30.6v8.7c0 16.7 4.9 30.1 14.5 40 7.9 8.2 18.5 13.4 31.6 15.6v21.6h28.5v-21.9c11.4-2.1 20.9-6.8 28.2-14 9.2-9 13.8-20.8 13.8-35.2.1-8.8-1.7-16.8-5.2-23.4z"/><path fill="#FFF" d="M553 493c-3.5-6.7-8.8-12.5-15.8-17.2-6.5-4.5-16.3-8.9-30-13.6-14.4-4.9-21.1-9.3-24.1-12.1-3.5-3.2-5.2-7.9-5.2-14.2 0-6.6 1.9-11.6 6-15.4 4.2-3.9 10.1-5.8 18.3-5.8 7.7 0 13.6 2.3 17.8 7.2 4.5 5.2 6.7 12.2 6.7 21.5v8.7h30.4v-8.7c0-16.5-4.2-30-12.6-40-7-8.4-16.3-13.8-27.8-16.3v-23.3h-28.6V387c-11 2.2-20.2 6.9-27.3 14.1-8.9 9.1-13.5 20.9-13.5 35.1 0 13.5 4.1 24.8 12.3 33.6 7.7 8.3 20.3 15.1 38.3 20.8 14.9 5.2 21.5 9.7 24.4 12.6 3.6 3.5 5.3 7.8 5.3 13.6 0 6.4-2.1 11.1-6.7 15-5 4.2-11.4 6.2-19.7 6.2-9.6 0-16.7-2.4-21.7-7.2-4.9-4.8-7.3-11.5-7.3-20.5v-8.7h-30.6v8.7c0 16.7 4.9 30.1 14.5 40 7.9 8.2 18.5 13.4 31.6 15.6v21.6h28.5v-21.9c11.4-2.1 20.9-6.8 28.2-14 9.2-9 13.8-20.8 13.8-35.2.1-8.8-1.7-16.8-5.2-23.4z"/><g fill="#D1D3D4"><path d="M487.8 555.9c-13-2.1-23.6-7.4-31.6-15.6-9.4-9.7-14.2-22.7-14.5-38.8v8.7c0 16.7 4.9 30.1 14.5 40 7.9 8.2 18.5 13.4 31.6 15.6v-9.9zM477.8 426c0 1.8.2 3.5.4 5 .8-4.2 2.6-7.7 5.5-10.4 4.2-3.9 10.1-5.8 18.3-5.8 7.7 0 13.6 2.3 17.8 7.2 4.5 5.2 6.7 12.2 6.7 21.5v8.7h30.4v-10h-30.4v-8.7c0-9.3-2.2-16.4-6.7-21.5-4.3-4.8-10.1-7.2-17.8-7.2-8.1 0-14.1 1.9-18.3 5.8-3.9 3.7-5.9 8.7-5.9 15.4zM498 490.6c14.9 5.2 21.5 9.7 24.4 12.6 2.5 2.4 4 5.2 4.7 8.6.3-1.6.5-3.2.5-5 0-5.8-1.7-10.1-5.3-13.6-2.9-2.9-9.6-7.4-24.4-12.6-18.1-5.7-30.6-12.5-38.3-20.8-7.1-7.6-11.2-17.2-12.1-28.6-.1 1.6-.2 3.3-.2 5 0 13.5 4.1 24.8 12.3 33.6 7.8 8.3 20.4 15.1 38.4 20.8zM487.8 577.6h28.5v10h-28.5zM544.5 541.7c-7.3 7.2-16.8 11.8-28.2 14v10c11.4-2.1 20.9-6.8 28.2-14 9.2-9 13.8-20.8 13.8-35.2 0-1.7-.1-3.3-.2-4.9-1 12.1-5.6 22.2-13.6 30.1z"/></g><path fill="#FFF" d="M261 460.2c0-8.5 6.9-15.4 15.4-15.4h41.1c8.5 0 15.4 6.9 15.4 15.4s-6.9 15.4-15.4 15.4h-41.1c-8.5 0-15.4-6.9-15.4-15.4z"/><path fill="#D1D3D4" d="M317.6 465.6h-41.1c-6.8 0-12.5-4.4-14.6-10.4-.5 1.6-.8 3.2-.8 5 0 8.5 6.9 15.4 15.4 15.4h41.1c8.5 0 15.4-6.9 15.4-15.4 0-1.8-.3-3.4-.8-5-2.1 6-7.9 10.4-14.6 10.4z"/><path fill="#FFF" d="M667 460.2c0-8.5 6.9-15.4 15.4-15.4h41.1c8.5 0 15.4 6.9 15.4 15.4s-6.9 15.4-15.4 15.4h-41.1c-8.5 0-15.4-6.9-15.4-15.4z"/><path fill="#D1D3D4" d="M723.6 465.6h-41.1c-6.8 0-12.5-4.4-14.6-10.4-.5 1.6-.8 3.2-.8 5 0 8.5 6.9 15.4 15.4 15.4h41.1c8.5 0 15.4-6.9 15.4-15.4 0-1.8-.3-3.4-.8-5-2.1 6-7.9 10.4-14.6 10.4z"/><path fill="#FFF" d="M500 293.2c-8.5 0-15.4-6.9-15.4-15.4v-41.1c0-8.5 6.9-15.4 15.4-15.4s15.4 6.9 15.4 15.4v41.1c0 8.5-6.9 15.4-15.4 15.4z"/><path fill="#D1D3D4" d="M500 283.2c-8.5 0-15.4-6.9-15.4-15.4v10c0 8.5 6.9 15.4 15.4 15.4s15.4-6.9 15.4-15.4v-10c0 8.5-6.9 15.4-15.4 15.4z"/><path fill="#FFF" d="M331 291.2c6-6 15.8-6 21.8 0l29.1 29.1c6 6 6 15.8 0 21.8s-15.8 6-21.8 0L331 313c-6-6-6-15.8 0-21.8z"/><path fill="#D1D3D4" d="M381.9 332.1c-6 6-15.8 6-21.8 0L331 303c-1.7-1.7-2.9-3.8-3.7-5.9-1.8 5.4-.6 11.6 3.7 15.9l29.1 29.1c6 6 15.8 6 21.8 0 4.3-4.3 5.5-10.5 3.7-15.9-.7 2.1-2 4.2-3.7 5.9z"/><path fill="#FFF" d="M618.1 578.3c6-6 15.8-6 21.8 0l29.1 29.1c6 6 6 15.8 0 21.8s-15.8 6-21.8 0l-29.1-29.1c-6-6-6-15.8 0-21.8z"/><path fill="#D1D3D4" d="M669 619.2c-6 6-15.8 6-21.8 0l-29.1-29.1c-1.7-1.7-2.9-3.8-3.7-5.9-1.8 5.4-.6 11.6 3.7 15.9l29.1 29.1c6 6 15.8 6 21.8 0 4.3-4.3 5.5-10.5 3.7-15.9-.8 2.1-2 4.1-3.7 5.9z"/><path fill="#FFF" d="M331 629.2c-6-6-6-15.8 0-21.8l29.1-29.1c6-6 15.8-6 21.8 0s6 15.8 0 21.8l-29.1 29.1c-6 6-15.8 6-21.8 0z"/><path fill="#D1D3D4" d="m381.9 590.1-29.1 29.1c-6 6-15.8 6-21.8 0-1.7-1.7-2.9-3.8-3.7-5.9-1.8 5.4-.6 11.6 3.7 15.9 6 6 15.8 6 21.8 0l29.1-29.1c4.3-4.3 5.5-10.5 3.7-15.9-.7 2.1-2 4.2-3.7 5.9z"/><path fill="#FFF" d="M618.1 342.1c-6-6-6-15.8 0-21.8l29.1-29.1c6-6 15.8-6 21.8 0s6 15.8 0 21.8l-29.1 29.1c-6 6-15.8 6-21.8 0z"/><path fill="#D1D3D4" d="m669 303-29.1 29.1c-6 6-15.8 6-21.8 0-1.7-1.7-2.9-3.8-3.7-5.9-1.8 5.4-.6 11.6 3.7 15.9 6 6 15.8 6 21.8 0L669 313c4.3-4.3 5.5-10.5 3.7-15.9-.8 2.2-2 4.2-3.7 5.9z"/></g></switch></svg>